<?xml version="1.0" encoding="UTF-8" standalone="no"?>
<!-- Created with Inkscape (http://www.inkscape.org/) -->

<svg
   xmlns:dc="http://purl.org/dc/elements/1.1/"
   xmlns:cc="http://creativecommons.org/ns#"
   xmlns:rdf="http://www.w3.org/1999/02/22-rdf-syntax-ns#"
   xmlns:svg="http://www.w3.org/2000/svg"
   xmlns="http://www.w3.org/2000/svg"
   xmlns:sodipodi="http://sodipodi.sourceforge.net/DTD/sodipodi-0.dtd"
   xmlns:inkscape="http://www.inkscape.org/namespaces/inkscape"
   width="1000"
   height="683.62714"
   id="svg91661"
   version="1.1"
   inkscape:version="0.48.5 r10040"
   sodipodi:docname="New document 19">
  <defs
     id="defs91663" />
  <sodipodi:namedview
     id="base"
     pagecolor="#ffffff"
     bordercolor="#666666"
     borderopacity="1.0"
     inkscape:pageopacity="0.0"
     inkscape:pageshadow="2"
     inkscape:zoom="0.22815242"
     inkscape:cx="964.38527"
     inkscape:cy="372.11613"
     inkscape:document-units="px"
     inkscape:current-layer="layer1"
     showgrid="false"
     fit-margin-top="0"
     fit-margin-left="0"
     fit-margin-right="0"
     fit-margin-bottom="0"
     inkscape:window-width="907"
     inkscape:window-height="669"
     inkscape:window-x="999"
     inkscape:window-y="-4"
     inkscape:window-maximized="0" />
  <metadata
     id="metadata91666">
    <rdf:RDF>
      <cc:Work
         rdf:about="">
        <dc:format>image/svg+xml</dc:format>
        <dc:type
           rdf:resource="http://purl.org/dc/dcmitype/StillImage" />
        <dc:title></dc:title>
      </cc:Work>
    </rdf:RDF>
  </metadata>
  <g
     inkscape:label="Layer 1"
     inkscape:groupmode="layer"
     id="layer1"
     transform="translate(-269.1758,483.71984)">
    <path
       d="M 675.77523,-483.71984 802.28572,-25.916853 354.11764,95.180044 939.97785,14.749535 675.77523,-483.71984"
       style="fill:#a7a9ac;fill-opacity:1;fill-rule:nonzero;stroke:none"
       id="path20625"
       inkscape:connector-curvature="0" />
    <path
       inkscape:connector-curvature="0"
       id="path20629"
       style="fill:#ffffff;fill-opacity:1;fill-rule:nonzero;stroke:none"
       d="m 583.80861,-187.229 c -4.99468,24.5545 -18.88312,45.62884 -45.98331,53.45922 -34.57609,9.98936 -66.70318,-7.83038 -77.17591,-42.72871 -9.53823,-31.93375 7.89482,-71.56898 42.14868,-82.5895 27.80911,-9.02266 52.62141,0.58002 69.24887,20.04318 l 89.90429,-71.21452 c -41.02085,-53.00809 -127.67054,-70.37669 -201.84964,-36.12283 -70.47337,32.51377 -125.28599,123.48145 -99.37808,212.06457 25.94013,88.776466 124.12593,134.82422197 216.86591,101.182615 68.08881,-24.715626 113.2343,-93.384465 118.10009,-155.415205 l -111.8809,1.32246" />
    <path
       d="M 1171.2156,-335.90944 1147.4989,48.197799 701.36089,70.851104 1191.1298,95.180044 1171.2156,-335.90944"
       style="fill:#a7a9ac;fill-opacity:1;fill-rule:nonzero;stroke:none"
       id="path20633"
       inkscape:connector-curvature="0" />
    <path
       inkscape:connector-curvature="0"
       id="path20637"
       style="fill:#000000;fill-opacity:1;fill-rule:nonzero;stroke:none"
       d="M 802.25349,-25.884629 675.743,-483.71984 269.1758,-332.52595 354.08541,95.212268 802.25349,-25.884629" />
    <path
       d="m 1147.4989,48.197799 23.7489,-384.042789 -408.37175,9.95714 -61.45071,396.70673 446.07356,-22.621081"
       style="fill:#ffffff;fill-opacity:1;fill-rule:nonzero;stroke:none"
       id="path20641"
       inkscape:connector-curvature="0" />
    <path
       inkscape:connector-curvature="0"
       id="path20645"
       style="fill:#ffffff;fill-opacity:1;fill-rule:nonzero;stroke:none"
       d="m 583.80861,-187.229 c -4.99468,24.5545 -18.88312,45.62884 -45.98331,53.45922 -34.57609,9.98936 -66.70318,-7.83038 -77.17591,-42.72871 -9.53823,-31.93375 7.89482,-71.56898 42.14868,-82.5895 27.80911,-9.02266 52.62141,0.58002 69.24887,20.04318 l 89.90429,-71.21452 c -41.02085,-53.00809 -127.67054,-70.37669 -201.84964,-36.12283 -70.47337,32.51377 -125.28599,123.48145 -99.37808,212.06457 25.94013,88.776466 124.12593,134.82422197 216.86591,101.182615 68.08881,-24.715626 113.2343,-93.384465 118.10009,-155.415205 l -111.8809,1.32246" />
    <path
       d="m 1104.8668,-287.47713 -102.1171,0.86876 -9.02262,116.13443 -1.83804,0.23201 L 814.75502,-277.12814 772.73524,4.4108629 875.33569,5.7333261 885.71175,-101.34623 1084.0812,15.27156 l 20.7843,-302.74353"
       style="fill:#000000;fill-opacity:1;fill-rule:nonzero;stroke:none"
       id="path20649"
       inkscape:connector-curvature="0" />
    <path
       inkscape:connector-curvature="0"
       id="path20661"
       style="fill:#000000;fill-opacity:1;fill-rule:nonzero;stroke:none"
       d="m 1264.9545,137.65096 c -1.8355,3.06126 -17.1108,28.38914 -17.1108,28.38914 0,0 19.302,29.54919 21.3321,32.67489 l -23.8134,0 c -0.6444,-0.9332 -19.012,-27.45464 -19.012,-27.45464 l -0.1031,3.6735 0,23.78114 -18.3353,0 0,-61.06403 18.3353,0 0,28.55026 c 0,0 18.0453,-27.5191 18.6576,-28.55026 l 20.0431,0" />
    <path
       d="m 854.10152,137.39317 0,62.5141 c -3.15792,-1.90249 -42.11645,-24.94119 -42.11645,-24.94119 0,0 0.25779,21.68659 0.25779,23.74891 l -20.3332,0 0,-61.32182 c 3.15793,1.99788 39.95747,25.10231 39.95747,25.10231 l 1.67563,-0.41762 0,-24.6834 20.55876,0"
       style="fill:#000000;fill-opacity:1;fill-rule:nonzero;stroke:none"
       id="path20665"
       inkscape:connector-curvature="0" />
    <path
       inkscape:connector-curvature="0"
       id="path20669"
       style="fill:#000000;fill-opacity:1;fill-rule:nonzero;stroke:none"
       d="m 889.03208,137.55429 25.26343,0 0,12.85728 -26.39126,0 0,11.31054 24.23227,0 0,12.76061 -24.23227,0 0,11.31054 26.39126,0 0,12.85728 -45.37106,0 0,-61.09625 20.10763,0" />
    <path
       d="m 979.06527,137.61874 0,14.56514 -18.10975,0 0,46.53111 -20.30097,0 0,-46.53111 -17.78752,0 0,-14.56514 56.19824,0"
       style="fill:#000000;fill-opacity:1;fill-rule:nonzero;stroke:none"
       id="path20673"
       inkscape:connector-curvature="0" />
    <path
       inkscape:connector-curvature="0"
       id="path20677"
       style="fill:#000000;fill-opacity:1;fill-rule:nonzero;stroke:none"
       d="m 1003.8453,137.55429 c 0.5801,1.28895 9.216,21.84771 9.216,21.84771 0,0 7.0893,-16.40189 8.7005,-20.2043 1.6421,3.80241 8.6037,20.2043 8.6037,20.2043 0,0 8.7971,-20.55876 9.3449,-21.84771 l 20.2687,0 c -1.1291,2.90014 -22.4277,58.19611 -23.9744,62.22408 -1.9979,-3.41571 -14.114,-23.97447 -14.114,-23.97447 0,0 -13.2762,20.71988 -15.3708,24.0067 -1.4488,-3.9313 -21.87992,-59.38839 -22.87885,-62.25631 l 20.20425,0" />
    <path
       d="m 1118.0786,146.73806 c 6.0258,6.02585 9.3126,13.40509 9.3126,21.39658 0,8.4104 -3.4479,15.7252 -9.3771,21.49325 -5.7036,5.73583 -13.9206,9.50601 -24.9089,9.50601 -9.506,0 -19.3987,-4.67245 -25.1023,-11.21387 -5.1236,-5.76805 -7.6693,-13.11507 -7.6693,-19.62427 0,-8.21706 3.2224,-15.49963 9.0549,-21.36435 5.768,-5.73583 14.0173,-9.79603 24.8123,-9.79603 9.4415,0 18.2386,3.96352 23.8778,9.60268 m -14.4685,31.1926 c 2.6424,-2.61012 4.028,-5.86472 4.028,-9.79602 0,-3.67351 -1.4514,-7.15367 -4.028,-9.7638 -2.2892,-2.32011 -5.8003,-3.96352 -9.6993,-3.96352 -4.2858,0 -7.5726,1.77102 -9.8927,3.96352 -2.6746,2.61013 -3.9958,5.89695 -3.9958,9.63491 0,3.8024 1.4823,7.25034 3.9958,9.89269 2.4155,2.51345 6.0903,4.12464 10.2471,4.12464 2.8357,0 6.5737,-1.31988 9.3449,-4.09242"
       style="fill:#000000;fill-opacity:1;fill-rule:nonzero;stroke:none"
       id="path20681"
       inkscape:connector-curvature="0" />
    <path
       inkscape:connector-curvature="0"
       id="path20685"
       style="fill:#000000;fill-opacity:1;fill-rule:nonzero;stroke:none"
       d="m 1185.5229,172.58152 16.8208,26.26237 -23.9422,0 -12.2773,-17.69085 -10.1505,0 0,17.69085 -19.9143,0 0,-61.35405 40.6987,0.0516 c 8.8615,0 18.3675,7.50814 18.3675,18.65756 0,8.4104 -5.1236,13.79177 -9.6027,16.36967 m -21.5899,-22.36329 -7.9593,0 0.1031,15.98299 9.5705,0 c 3.2868,0 7.8304,-2.64235 7.8304,-8.02372 0,-4.64022 -3.9636,-7.95927 -7.8304,-7.95927 l -1.7092,0" />
    <path
       d="m 760.94263,137.39317 0,61.74073 c -3.15793,-1.83804 -41.82644,-24.39339 -41.82644,-24.39339 l 0,23.97448 -18.36755,0 0,-60.16176 c 3.2546,2.03138 40.15081,25.00564 40.15081,25.00564 l 1.67563,-0.45114 0,-25.71456 18.36755,0"
       style="fill:#000000;fill-opacity:1;fill-rule:nonzero;stroke:none"
       id="path20689"
       inkscape:connector-curvature="0" />
    <path
       inkscape:connector-curvature="0"
       id="path20693"
       style="fill:#000000;fill-opacity:1;fill-rule:nonzero;stroke:none"
       d="m 553.51827,137.39317 0,14.66181 -18.14197,0 0,46.69223 -20.42987,0 0,-46.69223 -17.78752,0 0,-14.66181 56.35936,0" />
    <path
       d="m 285.96438,168.26354 c 0,-17.40084 15.20962,-31.51484 33.93162,-31.51484 13.17952,0 24.97342,7.02478 30.58035,18.0453 -2.06232,0.77337 -16.8208,6.38031 -18.33532,6.99256 -2.41549,-4.57577 -7.02478,-7.57258 -12.24503,-7.57258 -7.70148,0 -13.95289,6.34808 -13.95289,14.04956 0,7.7337 6.25141,14.01733 13.95289,14.01733 5.02691,0 9.57046,-2.83569 12.05169,-7.1859 1.3534,0.32224 16.9497,4.57578 19.23758,5.18803 -5.25247,11.665 -17.59417,19.46315 -31.28927,19.46315 -18.722,0 -33.93162,-14.11401 -33.93162,-31.48261"
       style="fill:#000000;fill-opacity:1;fill-rule:nonzero;stroke:none"
       id="path20697"
       inkscape:connector-curvature="0" />
    <path
       inkscape:connector-curvature="0"
       id="path20701"
       style="fill:#000000;fill-opacity:1;fill-rule:nonzero;stroke:none"
       d="m 612.1333,146.73806 c 6.05806,6.02585 9.28044,13.40509 9.28044,21.39658 0,8.4104 -3.44794,15.7252 -9.34489,21.49325 -5.70361,5.73583 -13.88844,9.50601 -24.87674,9.50601 -9.50601,0 -19.39871,-4.67245 -25.13454,-11.21387 -5.09135,-5.76805 -7.70148,-13.11507 -7.70148,-19.62427 0,-8.21706 3.28683,-15.49963 9.0871,-21.36435 5.73583,-5.73583 14.01734,-9.79603 24.8123,-9.79603 9.44156,0 18.23865,3.96352 23.87781,9.60268 m -14.5007,31.1926 c 2.64235,-2.61012 4.09242,-5.86472 4.09242,-9.79602 0,-3.67351 -1.45136,-7.15367 -4.06019,-9.7638 -2.28918,-2.32011 -5.80028,-3.96352 -9.69935,-3.96352 -4.28576,0 -7.54036,1.77102 -9.86048,3.96352 -2.73902,2.61013 -4.06019,5.89695 -4.06019,9.63491 0,3.8024 1.51323,7.25034 4.06019,9.89269 2.38456,2.51345 6.02585,4.12464 10.21494,4.12464 2.83569,0 6.57364,-1.31988 9.31266,-4.09242" />
    <path
       d="m 684.8301,146.73806 c 5.99362,6.02585 9.24822,13.40509 9.24822,21.39658 0,8.4104 -3.41572,15.7252 -9.31266,21.49325 -5.76806,5.73583 -13.92067,9.50601 -24.9412,9.50601 -9.50601,0 -19.36648,-4.67245 -25.10231,-11.21387 -5.05913,-5.76805 -7.70148,-13.11507 -7.70148,-19.62427 0,-8.21706 3.28683,-15.49963 9.11933,-21.36435 5.73583,-5.73583 13.95289,-9.79603 24.78007,-9.79603 9.47379,0 18.23865,3.96352 23.91003,9.60268 m -14.53291,31.1926 c 2.64235,-2.61012 4.06019,-5.86472 4.06019,-9.79602 0,-3.67351 -1.41784,-7.15367 -4.02797,-9.7638 -2.28918,-2.32011 -5.8325,-3.96352 -9.69935,-3.96352 -4.28576,0 -7.54036,1.77102 -9.82825,3.96352 -2.73902,2.61013 -4.06019,5.89695 -4.06019,9.63491 0,3.8024 1.48229,7.25034 3.99574,9.89269 2.38456,2.51345 6.09029,4.12464 10.24716,4.12464 2.90014,0 6.54142,-1.31988 9.31267,-4.09242"
       style="fill:#000000;fill-opacity:1;fill-rule:nonzero;stroke:none"
       id="path20705"
       inkscape:connector-curvature="0" />
    <path
       inkscape:connector-curvature="0"
       id="path20709"
       style="fill:#000000;fill-opacity:1;fill-rule:nonzero;stroke:none"
       d="m 479.01694,172.48485 16.85302,26.26236 -24.03892,0 -12.21281,-17.69084 -10.18271,0 0,17.69084 -19.91428,0 0,-61.35404 40.76306,0.0516 c 8.82931,0 18.30309,7.50814 18.30309,18.65756 0,8.44262 -5.1558,13.79177 -9.57045,16.36967 m -21.5577,-22.39552 -8.02372,0 0.1289,16.01521 9.50601,0 c 3.28682,0 7.89482,-2.64234 7.89482,-8.02371 0,-4.70467 -4.02797,-7.9915 -7.8626,-7.9915 l -1.64212,0" />
    <path
       d="m 386.82475,133.46187 -0.15467,-0.25779 c -0.10312,-0.12889 -0.25779,-0.25779 -0.48465,-0.25779 -0.12889,0 -0.28872,0.1289 -0.41762,0.23201 l -0.15467,0.29131 -37.57291,65.41423 21.78327,0.15468 4.35021,-8.24929 24.0067,0 3.60906,8.02372 22.33107,0.0516 -37.2829,-65.41424 z m -7.99149,45.49995 6.86366,-13.01839 0,-0.10312 0.1289,0 0.0516,0.10312 7.44368,13.01839 -14.50069,0"
       style="fill:#000000;fill-opacity:1;fill-rule:nonzero;stroke:none"
       id="path20713"
       inkscape:connector-curvature="0" />
  </g>
</svg>
